<mxfile host="app.diagrams.net" modified="2023-11-10T01:10:37.411Z" agent="Mozilla/5.0 (Windows NT 10.0; Win64; x64) AppleWebKit/537.36 (KHTML, like Gecko) Chrome/119.0.0.0 Safari/537.36" version="22.1.0" etag="dSTPSwwAsy8hz2Qf0DZe" type="github">
  <diagram name="페이지-1" id="Bfa98xLgn8Si1uqV1dQ9">
    <mxGraphModel>
      <root>
        <mxCell id="0" />
        <mxCell id="1" parent="0" />
      </root>
    </mxGraphModel>
  </diagram>
</mxfile>
